<svg width="783" height="702" viewBox="0 0 783 702" fill="none" xmlns="http://www.w3.org/2000/svg">
<path d="M400.51 1.53026L375.064 8.09234L61.5594 88.9388L36.113 95.5009C23.7617 98.7009 13.184 106.67 6.70069 117.659C0.217358 128.648 -1.64218 141.76 1.53004 154.119L111.871 581.996C115.071 594.348 123.04 604.925 134.029 611.409C145.018 617.892 158.13 619.752 170.489 616.579L170.555 616.562L534.82 522.626L534.886 522.609C547.237 519.409 557.815 511.44 564.298 500.451C570.781 489.462 572.641 476.349 569.469 463.991L459.128 36.1135C455.928 23.7621 447.959 13.1844 436.97 6.70102C425.981 0.217638 412.868 -1.64194 400.51 1.53026Z" fill="#F2F2F2"/>
<path d="M403.97 14.9452L373.83 22.7176L69.7116 101.144L39.5726 108.916C30.7769 111.195 23.2442 116.869 18.6273 124.695C14.0103 132.521 12.6861 141.858 14.9451 150.659L125.286 578.536C127.565 587.332 133.24 594.865 141.065 599.482C148.891 604.099 158.228 605.423 167.029 603.164L167.095 603.147L531.36 509.21L531.426 509.193C540.222 506.914 547.755 501.24 552.371 493.414C556.988 485.588 558.312 476.251 556.053 467.45L445.712 39.5728C443.434 30.7771 437.759 23.2446 429.934 18.6276C422.108 14.0106 412.771 12.6863 403.97 14.9452V14.9452Z" fill="white"/>
<path d="M381.212 153.503L196.939 201.024C194.881 201.554 192.696 201.246 190.866 200.166C189.035 199.086 187.708 197.323 187.178 195.265C186.647 193.206 186.956 191.022 188.036 189.191C189.116 187.361 190.879 186.034 192.937 185.503L377.21 137.983C379.267 137.454 381.45 137.764 383.279 138.844C385.108 139.924 386.434 141.687 386.964 143.744C387.495 145.801 387.187 147.984 386.108 149.814C385.03 151.644 383.269 152.971 381.212 153.503V153.503Z" fill="#F2F2F2"/>
<path d="M419.977 171.439L203.693 227.214C201.635 227.745 199.45 227.437 197.62 226.357C195.789 225.277 194.462 223.514 193.932 221.455C193.401 219.397 193.709 217.213 194.789 215.382C195.87 213.551 197.633 212.225 199.691 211.694L415.975 155.919C418.033 155.388 420.218 155.697 422.048 156.777C423.879 157.857 425.205 159.62 425.736 161.678C426.267 163.736 425.958 165.921 424.878 167.751C423.798 169.582 422.035 170.908 419.977 171.439V171.439Z" fill="#F2F2F2"/>
<path d="M411.48 270.877L227.207 318.397C226.188 318.66 225.127 318.72 224.085 318.572C223.043 318.425 222.04 318.074 221.134 317.539C220.227 317.005 219.435 316.297 218.802 315.456C218.17 314.615 217.709 313.657 217.446 312.638C217.183 311.619 217.123 310.558 217.271 309.516C217.418 308.474 217.769 307.471 218.304 306.565C218.838 305.658 219.546 304.866 220.387 304.233C221.228 303.6 222.186 303.14 223.205 302.877L407.478 255.356C408.497 255.094 409.558 255.034 410.6 255.181C411.642 255.328 412.645 255.679 413.551 256.214C414.458 256.749 415.25 257.457 415.883 258.298C416.515 259.139 416.976 260.096 417.239 261.115C417.502 262.135 417.562 263.195 417.414 264.237C417.267 265.28 416.916 266.282 416.381 267.189C415.847 268.095 415.139 268.888 414.298 269.52C413.457 270.153 412.499 270.614 411.48 270.877V270.877Z" fill="#F2F2F2"/>
<path d="M450.246 288.812L233.962 344.588C232.943 344.851 231.882 344.91 230.84 344.763C229.797 344.616 228.795 344.265 227.888 343.73C226.982 343.195 226.189 342.487 225.557 341.646C224.924 340.805 224.463 339.848 224.2 338.829C223.937 337.81 223.878 336.749 224.025 335.707C224.172 334.665 224.523 333.662 225.058 332.755C225.593 331.849 226.301 331.057 227.142 330.424C227.983 329.791 228.94 329.33 229.959 329.067L446.243 273.292C448.301 272.761 450.486 273.07 452.317 274.15C454.147 275.23 455.474 276.993 456.005 279.051C456.535 281.109 456.227 283.294 455.147 285.124C454.067 286.955 452.304 288.282 450.246 288.812Z" fill="#F2F2F2"/>
<path d="M441.749 388.25L257.476 435.771C255.418 436.3 253.235 435.99 251.405 434.91C249.576 433.83 248.25 432.067 247.72 430.01C247.189 427.953 247.497 425.769 248.576 423.939C249.655 422.109 251.417 420.782 253.473 420.25L437.746 372.73C439.805 372.199 441.989 372.508 443.82 373.588C445.65 374.668 446.977 376.431 447.508 378.489C448.039 380.547 447.73 382.732 446.65 384.562C445.57 386.393 443.807 387.719 441.749 388.25Z" fill="#F2F2F2"/>
<path d="M480.514 406.186L264.23 461.961C263.21 462.225 262.149 462.286 261.106 462.139C260.063 461.992 259.06 461.642 258.152 461.107C257.245 460.572 256.452 459.864 255.819 459.023C255.186 458.182 254.724 457.224 254.461 456.204C254.198 455.184 254.139 454.123 254.287 453.08C254.434 452.038 254.786 451.034 255.321 450.128C255.857 449.221 256.565 448.429 257.407 447.796C258.249 447.163 259.207 446.703 260.227 446.441L476.511 390.666C478.569 390.135 480.754 390.443 482.585 391.523C484.415 392.603 485.742 394.366 486.273 396.425C486.804 398.483 486.495 400.667 485.415 402.498C484.335 404.329 482.572 405.655 480.514 406.186V406.186Z" fill="#F2F2F2"/>
<path d="M165.481 249.749L100.268 266.566C99.2816 266.819 98.2346 266.671 97.3571 266.153C96.4796 265.635 95.8433 264.791 95.5878 263.804L80.6184 205.756C80.3651 204.769 80.5135 203.722 81.0312 202.845C81.5489 201.967 82.3936 201.331 83.3798 201.076L148.592 184.259C149.579 184.005 150.626 184.154 151.504 184.671C152.381 185.189 153.017 186.034 153.273 187.02L168.242 245.068C168.496 246.055 168.347 247.102 167.83 247.98C167.312 248.857 166.467 249.493 165.481 249.749V249.749Z" fill="#E6E6E6"/>
<path d="M195.749 367.122L130.537 383.939C129.55 384.193 128.503 384.044 127.626 383.526C126.748 383.009 126.112 382.164 125.856 381.178L110.887 323.13C110.634 322.143 110.782 321.096 111.3 320.218C111.817 319.341 112.662 318.705 113.648 318.449L178.861 301.632C179.848 301.379 180.895 301.527 181.772 302.045C182.65 302.563 183.286 303.407 183.541 304.394L198.511 362.442C198.764 363.429 198.616 364.476 198.098 365.353C197.58 366.23 196.736 366.867 195.749 367.122V367.122Z" fill="#E6E6E6"/>
<path d="M226.018 484.496L160.805 501.313C159.818 501.566 158.771 501.417 157.894 500.9C157.016 500.382 156.38 499.537 156.124 498.551L141.155 440.503C140.902 439.516 141.05 438.469 141.568 437.592C142.086 436.714 142.93 436.078 143.916 435.822L209.129 419.005C210.116 418.752 211.163 418.9 212.04 419.418C212.918 419.936 213.554 420.781 213.81 421.767L228.779 479.815C229.032 480.802 228.884 481.849 228.366 482.726C227.848 483.604 227.004 484.24 226.018 484.496V484.496Z" fill="#E6E6E6"/>
<path d="M654.659 109.992H278.34C265.581 110.006 253.349 115.081 244.327 124.103C235.305 133.125 230.23 145.358 230.215 158.117V599.993C230.23 612.752 235.305 624.984 244.327 634.006C253.349 643.028 265.581 648.103 278.34 648.118H654.659C667.418 648.103 679.65 643.028 688.672 634.006C697.694 624.984 702.769 612.752 702.784 599.993V158.117C702.769 145.358 697.694 133.125 688.672 124.103C679.65 115.081 667.418 110.006 654.659 109.992V109.992Z" fill="#E6E6E6"/>
<path d="M654.59 124H278.271C269.185 124.01 260.474 127.624 254.049 134.049C247.624 140.474 244.01 149.185 244 158.271V600.147C244.01 609.233 247.624 617.944 254.049 624.369C260.474 630.793 269.185 634.407 278.271 634.418H654.59C663.676 634.407 672.387 630.793 678.812 624.369C685.236 617.944 688.85 609.233 688.86 600.147V158.271C688.85 149.185 685.236 140.474 678.812 134.049C672.387 127.624 663.676 124.01 654.59 124V124Z" fill="white"/>
<path d="M466 239.111C448.42 239.111 431.234 244.325 416.616 254.092C401.999 263.859 390.605 277.742 383.878 293.984C377.15 310.226 375.39 328.099 378.819 345.342C382.249 362.584 390.715 378.423 403.146 390.854C415.578 403.285 431.416 411.751 448.659 415.181C465.902 418.611 483.774 416.851 500.017 410.123C516.259 403.395 530.141 392.002 539.909 377.384C549.676 362.767 554.889 345.581 554.889 328C554.889 304.425 545.524 281.816 528.854 265.146C512.184 248.476 489.575 239.111 466 239.111V239.111ZM466 405.778C450.617 405.778 435.58 401.216 422.789 392.67C409.999 384.124 400.03 371.977 394.143 357.764C388.256 343.552 386.716 327.914 389.717 312.827C392.718 297.739 400.126 283.88 411.003 273.003C421.88 262.126 435.739 254.718 450.827 251.717C465.914 248.716 481.552 250.256 495.765 256.143C509.977 262.03 522.124 271.999 530.67 284.789C539.216 297.58 543.778 312.617 543.778 328C543.778 348.628 535.584 368.411 520.997 382.997C506.411 397.584 486.628 405.778 466 405.778Z" fill="#8A9099"/>
<path d="M505.779 317.333C511.302 317.333 515.779 312.856 515.779 307.333C515.779 301.81 511.302 297.333 505.779 297.333C500.256 297.333 495.779 301.81 495.779 307.333C495.779 312.856 500.256 317.333 505.779 317.333Z" fill="#8A9099"/>
<path d="M429.391 317.333C434.913 317.333 439.391 312.856 439.391 307.333C439.391 301.81 434.913 297.333 429.391 297.333C423.868 297.333 419.391 301.81 419.391 307.333C419.391 312.856 423.868 317.333 429.391 317.333Z" fill="#8A9099"/>
<path d="M466.888 339.111C458.918 339.113 451.064 341.019 443.98 344.672C436.897 348.325 430.789 353.619 426.166 360.111C425.312 361.312 424.969 362.803 425.214 364.257C425.459 365.71 426.271 367.007 427.472 367.861C428.673 368.716 430.164 369.058 431.617 368.814C433.071 368.569 434.367 367.757 435.222 366.556C438.774 361.566 443.454 357.487 448.882 354.649C454.31 351.811 460.331 350.295 466.455 350.224C472.579 350.154 478.634 351.531 484.125 354.243C489.616 356.956 494.389 360.927 498.055 365.834C498.939 367.012 500.255 367.792 501.714 368C503.173 368.208 504.654 367.829 505.833 366.945C507.012 366.061 507.791 364.745 507.999 363.286C508.208 361.827 507.828 360.346 506.944 359.167C502.287 352.939 496.241 347.884 489.288 344.402C482.334 340.921 474.665 339.109 466.888 339.111V339.111Z" fill="#8A9099"/>
<path d="M355.33 530H343.36L323.34 499.69V530H311.37V480.86H323.34L343.36 511.31V480.86H355.33V530ZM387.247 530.49C382.627 530.49 378.38 529.417 374.507 527.27C370.68 525.123 367.624 522.137 365.337 518.31C363.097 514.437 361.977 510.097 361.977 505.29C361.977 500.483 363.097 496.167 365.337 492.34C367.624 488.513 370.68 485.527 374.507 483.38C378.38 481.233 382.627 480.16 387.247 480.16C391.867 480.16 396.09 481.233 399.917 483.38C403.79 485.527 406.824 488.513 409.017 492.34C411.257 496.167 412.377 500.483 412.377 505.29C412.377 510.097 411.257 514.437 409.017 518.31C406.777 522.137 403.744 525.123 399.917 527.27C396.09 529.417 391.867 530.49 387.247 530.49ZM387.247 519.57C391.167 519.57 394.294 518.263 396.627 515.65C399.007 513.037 400.197 509.583 400.197 505.29C400.197 500.95 399.007 497.497 396.627 494.93C394.294 492.317 391.167 491.01 387.247 491.01C383.28 491.01 380.107 492.293 377.727 494.86C375.394 497.427 374.227 500.903 374.227 505.29C374.227 509.63 375.394 513.107 377.727 515.72C380.107 518.287 383.28 519.57 387.247 519.57ZM452.28 480.86C457.46 480.86 461.987 481.887 465.86 483.94C469.734 485.993 472.72 488.887 474.82 492.62C476.967 496.307 478.04 500.577 478.04 505.43C478.04 510.237 476.967 514.507 474.82 518.24C472.72 521.973 469.71 524.867 465.79 526.92C461.917 528.973 457.414 530 452.28 530H433.87V480.86H452.28ZM451.51 519.64C456.037 519.64 459.56 518.403 462.08 515.93C464.6 513.457 465.86 509.957 465.86 505.43C465.86 500.903 464.6 497.38 462.08 494.86C459.56 492.34 456.037 491.08 451.51 491.08H445.84V519.64H451.51ZM515.32 521.32H496.98L494.04 530H481.51L499.29 480.86H513.15L530.93 530H518.26L515.32 521.32ZM512.24 512.08L506.15 494.09L500.13 512.08H512.24ZM571.691 480.86V490.45H558.671V530H546.701V490.45H533.681V480.86H571.691ZM608.288 521.32H589.948L587.008 530H574.478L592.258 480.86H606.118L623.898 530H611.228L608.288 521.32ZM605.208 512.08L599.118 494.09L593.098 512.08H605.208Z" fill="#8A9099"/>
</svg>
